<svg width="569" height="499" viewBox="0 0 569 499" fill="none" xmlns="http://www.w3.org/2000/svg">
<path d="M200.504 485.841C190.304 484.341 177.104 476.141 170.204 467.141C162.804 457.341 159.904 441.441 159.804 409.941C159.804 360.541 169.804 324.941 194.404 287.141C200.404 278.041 220.904 256.241 232.204 247.241C241.604 239.641 252.104 230.941 303.204 188.541C326.704 168.941 351.804 147.341 352.804 147.341C353.904 147.341 349.804 152.241 349.804 151.241C349.804 150.241 351.204 148.541 352.804 147.341C354.504 146.241 362.004 139.841 369.604 133.241C377.104 126.641 390.104 115.841 398.304 109.141C406.604 102.441 415.104 95.3407 417.404 93.2407C419.604 91.1407 423.004 88.1407 424.904 86.6407C428.204 83.9407 428.204 83.8408 425.604 84.3408C424.204 84.6408 422.204 85.2407 421.104 85.5407C419.304 86.1407 424.004 81.9407 428.404 78.9407C429.604 78.1407 437.504 71.7407 446.004 64.7407C476.704 39.2407 479.804 36.8408 479.804 37.8408C479.804 38.4408 480.904 38.9407 482.304 38.9407C484.404 38.9407 485.304 38.0407 487.104 34.0407C488.804 30.2407 491.304 27.4407 497.704 22.2407C502.304 18.5407 509.504 12.6407 513.704 9.24072C517.904 5.74072 521.804 3.14073 522.504 3.44073C523.204 3.64073 526.304 2.94073 529.404 1.94073C544.304 -3.25927 559.204 2.24073 566.004 15.4407C569.704 22.6407 569.004 28.5407 559.704 68.4407C556.304 82.6407 552.804 98.9407 547.804 122.941C539.904 161.341 523.304 234.741 522.404 235.641C522.104 235.941 518.604 233.541 514.604 230.441C505.204 223.041 490.804 216.141 480.304 213.941L474.604 212.741L475.104 208.641C475.404 206.341 480.395 182.44 480.995 179.44C482.195 174.14 489.804 192.241 490.804 194.941C491.604 197.141 480.804 198.941 482.704 198.741C484.704 198.541 485.604 197.341 487.404 192.941C488.604 189.941 489.904 186.541 490.204 185.541C490.604 183.941 490.904 183.841 492.204 184.941C493.604 186.041 492.804 195.34 492.804 188.44C492.804 184.14 491.504 192.741 491.304 192.941C488.904 195.341 484.804 181.541 484.804 182.141C484.804 182.641 485.404 182.941 486.204 182.941C487.404 182.941 487.204 184.041 485.504 188.941C484.304 192.241 483.004 194.941 482.704 194.941C482.404 194.941 481.404 193.241 480.604 191.141C479.104 187.441 479.304 186.441 484.404 164.341C492.104 130.841 499.304 96.0408 498.504 95.3408C498.004 94.8408 490.004 100.441 487.804 102.941C486.104 104.841 472.304 116.241 467.304 119.941C464.004 122.441 456.204 128.941 449.904 134.441C443.604 139.941 436.104 146.241 433.204 148.441C426.804 153.341 403.404 172.641 391.804 182.541C387.104 186.541 375.004 196.641 364.804 205.141C354.604 213.541 341.704 224.241 336.204 228.941C330.604 233.641 319.804 242.641 312.204 248.941C304.504 255.241 294.904 263.341 290.804 266.941C286.704 270.641 277.704 278.041 270.804 283.641C241.304 307.341 228.204 326.941 218.404 362.441C213.504 380.241 212.904 386.841 213.404 413.441C214.004 445.041 215.304 450.541 224.304 458.841C230.804 464.841 235.704 466.641 245.704 466.841C250.004 466.941 250.104 466.941 248.304 468.941C244.804 472.741 228.204 482.741 222.804 484.241C216.204 486.141 207.004 486.741 200.504 485.841ZM231.404 288.941C232.604 285.941 233.904 282.541 234.204 281.541C234.604 279.941 234.904 279.841 236.204 280.941C237.604 282.041 237.804 281.341 237.804 274.441C237.804 270.141 238.504 283.74 238.304 283.94C235.904 286.34 228.804 277.541 228.804 278.141C233.304 278.44 229.404 278.941 230.204 278.941C231.404 278.941 237.904 283.04 236.204 287.94C235.004 291.24 227.604 297.94 227.304 297.94C227.004 297.94 217.104 289.64 216.204 287.44C215.104 284.64 222.504 283.141 221.504 283.541C220.304 283.941 220.404 284.941 222.204 289.541C224.004 294.241 224.604 294.941 226.704 294.741C228.704 294.541 229.704 293.241 231.404 288.941ZM359.404 160.941C360.604 157.941 357.004 149.44 357.304 148.44C357.704 146.84 362.904 151.841 364.204 152.941C365.604 154.041 365.804 153.341 365.804 146.441C365.804 142.141 367.504 145.74 367.304 145.94C364.904 148.34 369.304 156.84 369.304 157.44C369.304 157.94 357.404 150.941 358.204 150.941C359.404 150.941 365.004 156.641 363.304 161.541C362.104 164.841 355.304 169.94 354.704 162.941C358.804 169.44 355.604 173.14 354.704 170.94C353.604 168.14 353.504 167.04 352.504 167.44C351.304 167.84 348.404 156.941 350.204 161.541C352.004 166.241 352.604 166.941 354.704 166.741C356.704 166.541 357.704 165.241 359.404 160.941Z" fill="#8BCEBC"/>
<path d="M144.303 274.841C140.003 273.841 88.3037 246.64 88.3037 245.44C88.3037 245.04 101.203 243.34 101.703 241.94C102.603 239.64 110.604 242.94 111.804 243.94C113.104 245.04 109.803 249.141 109.803 242.441C109.803 238.141 91.8037 236.341 109.403 235.041C107.003 237.441 117.804 250.841 117.804 251.441C117.804 251.941 101.403 246.941 102.203 246.941C103.703 246.941 103.303 250.541 101.703 251.441C100.403 252.341 94.0033 248.741 93.5033 246.841C93.2033 245.641 107.704 254.04 106.304 254.44C104.204 254.94 73.7033 238.641 53.3033 227.041C47.3033 223.541 36.4033 217.641 29.1033 213.741C18.5033 208.141 14.8033 205.641 10.4033 200.941C-7.19671 181.841 -1.69673 149.841 21.1033 139.441C24.0033 138.141 33.1033 135.141 41.3033 132.941C49.6033 130.641 61.3033 127.341 67.3033 125.441C82.4033 120.841 109.303 113.641 121.003 111.041C126.403 109.841 142.603 105.541 157.003 101.341C171.503 97.1406 193.403 91.0406 205.803 87.8406C255.303 74.8406 262.703 72.8405 272.303 69.9405C277.803 68.2405 287.903 65.5406 294.803 63.8406C301.703 62.2406 310.903 59.7405 315.303 58.5405C319.703 57.2405 327.803 54.9405 333.303 53.5405C344.203 50.7405 367.803 44.2405 399.303 35.6405C410.303 32.6405 426.503 28.2405 435.303 25.9405C444.103 23.5405 462.803 18.5405 476.803 14.6405C514.303 4.34055 515.103 4.14053 519.303 3.84053C524.203 3.34053 524.903 5.14053 521.103 8.34053C512.403 15.8405 497.503 28.0405 492.003 32.2405L485.803 37.0405L487.603 32.2405C488.603 29.6405 489.803 26.6405 490.203 25.5405C490.703 24.0405 491.103 23.9405 492.303 24.9405C493.603 26.0405 493.803 25.1405 493.803 18.4405C493.803 14.1405 494.004 26.7404 493.804 26.9404C491.404 29.3404 485.503 29.8404 485.503 30.4404C485.503 30.9404 485.403 22.9405 486.203 22.9405C487.403 22.9405 487.203 24.0405 485.503 28.9405C484.303 32.2405 483.003 34.9405 482.703 34.9405C482.403 34.9405 481.403 33.1405 480.503 30.9405C479.403 28.1405 482.804 26.5404 481.804 26.9404C480.604 27.3404 488.004 25.3404 489.804 29.9404C490.904 32.9404 486.004 35.8404 486.804 35.9404C487.604 36.1404 474.203 46.8406 463.203 55.8406C452.303 64.9406 440.503 74.6405 437.103 77.5405C430.403 83.1405 424.903 85.2405 407.403 89.0405C396.503 91.4405 387.103 93.9406 376.303 97.3406C361.703 101.841 343.603 106.741 322.803 111.841C311.503 114.541 293.803 119.341 283.303 122.441C272.903 125.541 257.403 129.841 249.103 131.941C219.303 139.641 199.003 145.141 177.303 151.341C165.203 154.841 146.503 159.841 135.803 162.441C108.303 169.141 81.8033 177.141 81.8033 178.841C81.8033 180.141 97.3033 189.641 111.303 196.941C140.103 211.941 167.403 227.241 170.603 230.341C172.503 232.041 174.603 234.641 175.403 236.041C182.303 249.241 175.703 267.841 162.003 273.441C157.303 275.441 149.203 276.041 144.303 274.841ZM219.804 120.941C219.804 120.141 219.803 120.141 219.403 119.841C218.103 119.041 219.604 117.741 220.304 118.941C221.304 120.541 219.804 122.641 219.804 120.941Z" fill="#FBC84D"/>
<path d="M421.951 496.425C409.451 492.625 404.051 487.925 354.751 437.725C329.151 411.825 307.951 390.725 307.451 390.825C306.951 391.025 304.751 395.225 302.451 400.125C293.651 419.025 280.351 438.025 264.751 453.725C256.351 462.125 254.151 463.025 243.551 462.125C236.151 461.425 232.45 459.125 228.15 454.625C223.25 449.625 220.951 444.525 219.651 436.025C218.551 429.725 219.15 428.124 219.151 427.124C219.65 425.624 219.651 425.624 219.651 425.624C219.651 425.624 221.051 421.825 227.151 415.525C246.651 395.325 257.451 375.925 264.651 348.125C268.351 333.825 270.551 328.925 275.451 324.025C283.751 315.825 295.651 313.425 307.051 317.625C312.051 319.525 315.751 323.025 347.351 354.925C398.151 406.225 425.851 433.625 426.851 433.625C427.351 433.625 428.251 432.325 428.751 430.625C429.351 429.025 430.151 427.625 430.451 427.625C430.851 427.725 432.951 429.525 435.151 431.725C437.351 433.925 441.651 436.925 444.651 438.425C449.551 440.825 451.251 441.125 460.151 441.125C468.951 441.125 470.851 440.725 475.951 438.325C479.151 436.825 481.951 435.625 482.151 435.625C483.151 435.625 477.151 464.325 475.051 469.825C471.351 479.325 461.251 490.125 452.251 494.225C442.051 498.925 432.151 499.625 421.951 496.425Z" fill="#F5856A"/>
<path d="M457.151 412.425C451.351 409.325 432.751 386.625 417.951 364.625C400.951 339.525 392.451 315.725 394.251 298.125C395.851 281.725 401.551 269.625 413.651 257.625C426.551 244.725 439.451 238.925 457.651 237.925C469.851 237.325 479.451 239.225 490.151 244.525C501.451 250.225 508.851 256.625 515.351 266.425C529.651 287.925 530.951 309.525 519.551 336.025C507.651 363.525 468.851 414.025 459.851 413.625C459.451 413.625 458.251 413.025 457.151 412.425ZM473.751 327.425C479.151 324.225 481.751 321.425 484.851 315.625C486.751 311.925 487.151 309.625 487.151 302.625C487.151 294.625 486.951 293.725 483.751 288.725C481.651 285.525 478.251 282.025 474.951 279.925C470.551 276.925 468.551 276.325 462.651 275.825C457.451 275.525 454.451 275.825 451.151 277.025C445.151 279.325 438.051 286.425 434.951 293.225C430.051 304.025 433.451 316.325 443.651 324.525C450.151 329.725 453.251 330.725 461.751 330.325C467.751 330.025 470.351 329.425 473.751 327.425Z" fill="#F5856A"/>
</svg>
