<svg width="2199" height="497" viewBox="0 0 2199 497" fill="none" xmlns="http://www.w3.org/2000/svg">
<path d="M421.147 494.546C408.647 490.746 403.247 486.046 353.947 435.846C328.347 409.946 307.147 388.846 306.647 388.946C306.147 389.146 303.947 393.346 301.647 398.246C292.847 417.146 279.547 436.146 263.947 451.846C255.547 460.246 253.347 461.146 242.747 460.246C235.347 459.546 231.647 457.246 227.347 452.746C222.447 447.746 220.147 442.646 218.847 434.146C217.747 427.846 218.347 426.245 218.347 425.245C218.847 423.745 218.847 423.745 218.847 423.745C218.847 423.745 220.247 419.946 226.347 413.646C245.847 393.446 256.647 374.046 263.847 346.246C267.547 331.946 269.747 327.046 274.647 322.146C282.947 313.946 294.847 311.546 306.247 315.746C311.247 317.646 314.947 321.146 346.547 353.046C397.347 404.346 425.047 431.746 426.047 431.746C426.547 431.746 427.447 430.446 427.947 428.746C428.547 427.146 429.347 425.746 429.647 425.746C430.047 425.846 432.147 427.646 434.347 429.846C436.547 432.046 440.847 435.046 443.847 436.546C448.747 438.946 450.447 439.246 459.347 439.246C468.147 439.246 470.047 438.846 475.147 436.446C478.347 434.946 481.147 433.746 481.347 433.746C482.347 433.746 476.347 462.446 474.247 467.946C470.547 477.446 460.447 488.246 451.447 492.346C441.247 497.046 431.347 497.746 421.147 494.546Z" fill="#F5856A"/>
<path d="M456.348 410.546C450.548 407.446 431.948 384.746 417.148 362.746C400.148 337.646 391.648 313.846 393.448 296.246C395.048 279.846 400.748 267.746 412.848 255.746C425.748 242.846 438.648 237.046 456.848 236.046C469.048 235.446 478.648 237.346 489.348 242.646C500.648 248.346 508.048 254.746 514.548 264.546C528.848 286.046 530.148 307.646 518.748 334.146C506.848 361.646 468.048 412.146 459.048 411.746C458.648 411.746 457.448 411.146 456.348 410.546ZM472.948 325.546C478.348 322.346 480.948 319.546 484.048 313.746C485.948 310.046 486.348 307.746 486.348 300.746C486.348 292.746 486.148 291.846 482.948 286.846C480.848 283.646 477.448 280.146 474.148 278.046C469.748 275.046 467.748 274.446 461.848 273.946C456.648 273.646 453.648 273.946 450.348 275.146C444.348 277.446 437.248 284.546 434.148 291.346C429.248 302.146 432.648 314.446 442.848 322.646C449.348 327.846 452.448 328.846 460.948 328.446C466.948 328.146 469.548 327.546 472.948 325.546Z" fill="#F5856A"/>
<path d="M1600 265.645C1606.3 278.245 1620.4 288.444 1635.5 291.344C1648.3 293.844 1664.9 291.845 1675.7 286.645C1681.8 283.645 1693.9 271.545 1696.9 265.445C1702.1 254.545 1702.3 252.944 1702.7 210.044L1703.1 169.744H1707.3C1776.7 169.044 1779.8 168.945 1783.5 167.145C1792.1 163.045 1794.7 150.244 1788.3 142.744C1784 137.544 1781.2 136.744 1767 136.244C1755 135.844 1747.5 136.244 1744.5 136.244C1741.5 136.244 1738.2 136.344 1722.9 136.244H1703.5L1703.2 107.445C1703 84.9445 1703.2 78.7445 1704.2 78.6445C1704.9 78.6445 1728.2 78.5445 1756 78.4445C1805.1 78.2445 1806.6 78.1445 1810.5 76.1445C1812.7 75.0445 1815.6 72.5445 1816.8 70.6445C1818.8 67.8445 1819.1 66.2445 1818.8 61.2445C1818.4 54.0445 1815.8 49.8445 1810.4 47.2445C1807 45.6445 1801.6 45.5445 1743.1 45.6445C1671.5 45.8445 1676.3 45.3445 1670.5 53.6445L1667.5 57.9445L1667 152.044L1666.5 246.244L1664.2 249.945C1659.9 256.945 1651.4 260.044 1643 257.744C1643 257.744 1638.15 257.062 1633.09 250.544L1630.4 244.744L1630.3 197.445C1630.1 153.745 1630 149.644 1628.1 142.544C1625.3 131.744 1622 125.844 1615.3 119.744C1597.3 103.244 1566.7 102.445 1546.2 117.945C1541 121.845 1538 122.344 1538 119.244C1538 118.444 1536.4 115.944 1534.4 113.744C1526.5 105.044 1513.1 106.045 1506.7 115.945L1504 120.145V185.744V251.445L1506.3 255.744C1512.1 266.744 1529.9 267.745 1537.2 257.445C1539.5 254.247 1539.5 254.045 1540 207.374L1540 207.244L1540 206.982C1540.5 160.643 1540.5 160.236 1542.8 155.945C1546 150.045 1551.6 144.045 1556.4 141.445C1559.7 139.645 1562.2 139.244 1569.5 139.244C1579.8 139.244 1584.8 141.244 1588.9 147.244C1593.7 154.344 1593.8 155.644 1594.1 202.844C1594.4 251.244 1594.8 255.345 1600 265.645Z" fill="#F06E58"/>
<path d="M1969.3 264.745C1951.2 261.445 1935.2 252.145 1922.2 237.245C1915.6 229.645 1911.8 221.945 1908.4 209.245C1906.2 200.945 1905.7 197.145 1905.7 187.145C1905.8 180.545 1906.3 172.445 1906.9 169.145C1909.6 155.645 1918.5 138.545 1927.9 128.945C1935.8 120.945 1951.8 111.745 1962.2 109.245C2005.4 99.0452 2044.8 122.745 2052.6 163.545C2053.4 167.645 2054 175.145 2054 180.245C2054 188.045 2053.7 189.845 2051.9 192.145C2047.7 197.445 2044.9 198.145 2026.7 198.545C2010.8 198.945 2011.26 198.745 2009.5 198.745C2006.73 198.745 2012.1 193.645 2013.6 194.845C2014.8 195.845 2003 196.245 2003 189.745C2003 185.445 2014.8 180.645 2014.6 180.845C2012.2 183.245 2006 191.345 2006 191.945C2006 192.445 2013.3 191.245 2014 191.245C2015.2 191.245 2012.6 198.745 2011 198.745C2008.5 198.745 2006.2 198.745 2004 198.745C2002.4 198.745 2002.5 198.745 2001 198.745C1999.5 198.745 2000 198.745 1998 198.745C1995 198.745 1984.7 198.745 1967.5 198.745H1938.9L1939.5 201.045C1941.1 206.745 1947 216.645 1951.8 221.945C1960.9 231.745 1973.8 236.445 1989.5 235.445C2000.1 234.845 2006.5 232.545 2015.1 226.445C2020.8 222.545 2021.6 222.245 2028 222.245C2035.6 222.245 2038.7 223.845 2042.8 229.745C2047.2 236.245 2045 242.545 2035.9 249.745C2029.4 254.845 2024.1 257.545 2012.5 261.745C2004.2 264.745 2002.4 265.045 1989 265.345C1981 265.445 1972.1 265.245 1969.3 264.745ZM2020 167.945C2020 163.045 2013.7 151.645 2008.1 146.445C2001.6 140.345 1995.7 137.745 1986.7 136.845C1972.5 135.545 1962.2 138.745 1953 147.345C1945.4 154.445 1938.7 167.045 1941.3 169.645C1942.1 170.445 1954.3 170.745 1981.2 170.745H2020V167.945Z" fill="#F06E58"/>
<path d="M1868 264.062C1851.9 260.062 1840.7 246.545 1836.5 228.345C1835.2 222.745 1835 210.045 1835.2 138.445C1835.2 138.445 1835.2 87.7455 1835.65 56.0625C1835.68 54.1396 1837.65 51.5625 1837.65 51.5625C1838.81 49.5795 1841.6 47.2454 1843 46.3454C1849.3 42.7454 1858.7 43.4455 1863.9 48.1455C1869 52.6455 1869 53.1455 1869 105.745C1869 132.745 1868.5 154.745 1868.5 154.745C1868.5 154.245 1868.5 154.745 1868.5 155.245C1868.5 155.745 1868.5 155.197 1868.5 156.245C1868.5 157.184 1868.5 157.045 1868.5 157.745C1868.5 158.545 1868.5 158.745 1868.5 160.245C1868.5 161.245 1868.5 160.245 1868.5 161.745C1868.5 162.745 1868.9 172.045 1869.2 191.245C1869.7 228.745 1870.2 229.945 1885 230.145C1891 230.245 1893.1 230.645 1895.6 232.445C1903.8 238.245 1904.1 252.945 1896.2 260.045C1891.6 264.245 1877.8 266.462 1868 264.062Z" fill="#F06E58"/>
<path d="M2063.4 242.645C2060 249.645 2064.1 260.145 2071.4 263.345C2073.1 264.045 2076.8 264.645 2079.5 264.745C2088 264.745 2088.4 264.345 2111.6 234.345L2130 210.745L2151.9 239.145C2163.8 254.745 2169.7 261.545 2173.1 263.245C2176.9 265.245 2185.4 265.145 2189.7 263.045C2197.4 259.445 2200.8 248.045 2196.3 240.545C2195.2 238.745 2185.3 226.045 2174.4 212.245C2163.4 198.545 2154.1 186.745 2153.7 186.045C2153 184.945 2162.4 172.545 2183.4 147.245C2197.5 130.245 2199.2 125.545 2194.8 116.745C2191.2 109.845 2182.6 105.945 2175.2 107.945C2170.5 109.245 2164.4 115.445 2155 128.845C2146.3 140.945 2133.2 157.945 2131.7 158.945C2131.1 159.345 2130.2 159.345 2129.8 159.145C2128.6 158.445 2115.6 141.845 2107.2 130.545C2096.5 115.945 2089.3 108.745 2084.8 108.045C2074.2 106.445 2064 114.345 2064 124.245C2064 129.445 2066.8 134.145 2077.6 147.245C2092.9 165.745 2107 184.045 2107 185.345C2107 186.045 2104.7 189.245 2101.9 192.445C2099.1 195.645 2092.4 204.145 2087 211.345C2081.6 218.445 2074.4 227.745 2071.1 231.845C2067.7 235.945 2064.3 240.745 2063.4 242.645Z" fill="#F06E58"/>
<path d="M1967.33 345.862C1967.83 340.562 1967.13 333.062 1966.23 333.062C1965.63 333.062 1964.63 334.262 1964.03 335.862L1962.93 338.562L1962.23 336.062C1960.83 331.463 1961.03 331.062 1965.23 331.062H1969.23V338.963C1969.23 343.463 1968.73 347.263 1968.13 347.562C1967.53 347.962 1967.23 347.362 1967.33 345.862Z" fill="#8BCEBC"/>
<path d="M1081.53 342.362L1077.23 341.963V337.463V333.062H1081.73H1086.23V338.062C1086.23 340.863 1086.13 342.962 1086.03 342.862C1085.83 342.762 1083.83 342.562 1081.53 342.362ZM1082.63 335.763C1080.63 334.663 1078.93 336.162 1079.73 338.362C1080.33 339.762 1080.53 339.763 1082.33 338.263C1084.03 336.763 1084.03 336.563 1082.63 335.763Z" fill="#8BCEBC"/>
<path d="M684.134 252.162C685.434 256.462 688.834 259.762 693.934 261.662C702.434 264.862 712.534 261.163 716.134 253.562C718.034 249.762 718.034 246.262 717.834 162.862C717.634 115.062 717.834 76.0625 718.134 76.0625C718.434 76.0625 732.134 75.9625 748.434 75.7625C776.734 75.5625 778.234 75.4625 780.934 73.4625C790.734 66.1625 790.734 53.9625 780.934 46.6625C778.134 44.6625 776.834 44.5625 738.434 44.2625C703.734 44.0625 700.334 44.0622 698.234 44.0628C694.234 44.0628 695.234 44.0625 692.034 44.0625H659.234C633.234 44.0625 625.434 44.3625 622.834 45.4625C612.834 49.6625 609.734 62.6625 616.934 70.2625C622.134 75.8625 623.534 76.0625 654.734 76.0625H683.234V127.162C683.234 171.162 682.834 250.862 684.134 252.162Z" fill="#FBC84D"/>
<path d="M862.834 113.562C862.534 112.762 862.534 112.062 862.834 112.062C863.134 112.062 864.034 112.762 864.834 113.562C866.134 114.862 866.134 115.062 864.934 115.062C864.134 115.062 863.234 114.362 862.834 113.562Z" fill="#FBC84D"/>
<path d="M1420.93 241.862C1422.83 239.762 1424.03 239.462 1422.33 241.462C1421.33 242.562 1421.53 242.962 1422.93 243.362C1423.93 243.662 1423.53 243.762 1422.03 243.762C1419.53 243.662 1419.43 243.562 1420.93 241.862Z" fill="#8BCEBC"/>
<path d="M961.3 259.596C956.5 258.196 950.3 258.896 951.5 255.696C952.4 253.396 960.6 252.596 961.8 253.596C963.1 254.696 963.3 253.796 963.3 247.096C963.3 242.796 961.8 238.536 962.9 239.696C964.5 240.196 964.255 246.896 964.255 247.496C964.255 247.996 963.5 251.196 963.5 251.196C964.7 251.196 962.7 253.857 961.8 256.357C960.5 260.057 953.5 258.303 950.1 257.496C947.7 256.926 947.7 256.872 945.2 256.096C943.8 255.896 939.4 254.196 935.6 252.196C909.8 238.596 895.1 213.296 895 182.096C895 168.596 896.2 161.496 900.4 150.496C905.9 136.296 915.4 124.296 928.3 115.596C936.1 110.296 946.9 106.895 949 106.195C951.9 104.895 950 105.696 956 104.196C963 102.196 968.9 101.396 981.6 102.696C1001.9 104.696 1016.2 111.396 1029.8 125.096C1044 139.296 1050.7 154.296 1052 174.896C1052.6 184.396 1052 184.696 1051.9 188.196C1051.83 190.696 1051.9 190.196 1051.9 190.696C1051.9 193.197 1051.9 196.096 1050 196.096C1047.8 196.096 1046 198.796 1046 199.596C1046 200.296 1040.4 200.196 1039.3 201.196C1038.2 202.096 1025.5 199.596 1027.5 196.696C1028.5 191.196 1037.8 188.696 1039.3 188.696C1040.4 188.696 1042.5 187.696 1042.5 188.196C1042.5 188.796 1043.9 191.896 1045 191.896C1046.3 191.896 1051.9 189.896 1051.9 191.196C1051.9 192.796 1051.9 199.724 1051.9 204.196C1051.9 206.896 1051.9 204.196 1051.9 206.896C1052.2 208.196 1052.3 218.496 1052 229.696C1051.6 252.896 1051.3 253.996 1043.9 257.596C1038.5 260.196 1032.1 260.196 1026.7 257.496C1021.2 254.896 1018.3 250.296 1018.3 244.296V239.796L1013 244.896C1007.1 250.596 997.7 255.696 988.7 258.096C981.2 260.096 964.6 260.996 961.3 259.596ZM988.6 227.096C992.4 225.796 997.8 222.896 1000.6 220.696C1005.4 216.996 1002 219.696 1005 217.196C1006 216.196 1006.5 215.696 1007 215.196C1008 213.696 1007.4 214.396 1009 212.196C1023.8 192.796 1022 163.596 1004.2 145.396C997.9 138.996 990.9 135.196 982.1 133.496C977 132.196 979 132.694 977 132.195C975.5 132.194 976 132.195 975 132.195C972 132.195 973.5 132.195 971 132.196C969.47 132.197 966.7 133.196 962.9 134.096C954.1 135.996 948.8 139.196 942.1 146.596C932.5 157.196 928.3 167.596 928.3 181.096C928.3 194.896 932.9 206.196 942.6 216.296C951.6 225.796 960.3 229.296 974.3 229.496C979.8 229.496 983.6 228.896 988.6 227.096Z" fill="#FBC84D"/>
<path d="M943.234 368.862V331.062H946.734H950.234V368.862V406.562H946.734H943.234V368.862Z" fill="#8BCEBC"/>
<path d="M1200.63 405.662C1195.93 403.562 1190.33 398.262 1188.03 393.662C1184.83 387.462 1184.43 377.062 1187.23 369.862C1192.83 354.862 1211.23 349.262 1223.93 358.662C1227.33 361.262 1230.53 368.462 1231.53 375.862L1232.03 380.062H1213.23C1201.23 380.062 1194.13 380.462 1193.73 381.062C1191.63 384.462 1196.13 394.462 1201.43 398.362C1207.13 402.662 1221.13 401.162 1225.83 395.862C1227.63 393.962 1227.63 394.062 1228.93 396.262C1231.13 400.262 1230.43 401.762 1225.53 404.162C1219.63 407.062 1205.53 407.862 1200.63 405.662ZM1224.83 374.662C1225.63 372.662 1221.33 364.162 1218.73 362.462C1214.43 359.662 1210.43 359.062 1205.23 360.662C1201.33 361.862 1199.73 362.962 1197.43 366.362C1194.13 371.262 1193.03 373.862 1193.83 375.162C1194.13 375.662 1201.13 376.062 1209.33 376.062C1221.13 376.062 1224.43 375.762 1224.83 374.662Z" fill="#8BCEBC"/>
<path d="M1472.27 405.67C1467.57 403.57 1461.97 398.27 1459.67 393.67C1456.47 387.47 1456.07 377.07 1458.87 369.87C1464.47 354.87 1482.87 349.27 1495.57 358.67C1498.97 361.27 1502.17 368.47 1503.17 375.87L1503.67 380.07H1484.87C1472.87 380.07 1465.77 380.47 1465.37 381.07C1463.27 384.47 1467.77 394.47 1473.07 398.37C1478.77 402.67 1492.77 401.17 1497.47 395.87C1499.27 393.97 1499.27 394.07 1500.57 396.27C1502.77 400.27 1502.07 401.77 1497.17 404.17C1491.27 407.07 1477.17 407.87 1472.27 405.67ZM1496.47 374.67C1497.27 372.67 1492.97 364.17 1490.37 362.47C1486.07 359.67 1482.07 359.07 1476.87 360.67C1472.97 361.87 1471.37 362.97 1469.07 366.37C1465.77 371.27 1464.67 373.87 1465.47 375.17C1465.77 375.67 1472.77 376.07 1480.97 376.07C1492.77 376.07 1496.07 375.77 1496.47 374.67Z" fill="#8BCEBC"/>
<path d="M1354.73 405.162C1349.83 402.962 1344.93 397.562 1343.13 392.362C1342.43 390.262 1341.83 384.962 1341.83 380.562C1341.83 367.362 1347.23 358.562 1357.13 355.162C1364.83 352.562 1372.83 354.262 1378.43 359.762L1382.23 363.462V359.262V355.062L1385.83 355.262L1389.43 355.562L1389.63 380.962L1389.73 406.362L1386.03 406.762L1382.23 407.162V402.962V398.862L1378.63 402.062C1376.63 403.762 1373.93 405.662 1372.53 406.162C1368.53 407.662 1359.03 407.162 1354.73 405.162ZM1376.33 396.362C1386.53 385.462 1382.93 364.762 1370.23 360.962C1356.33 356.762 1345.03 372.962 1350.73 389.162C1353.73 397.462 1359.13 401.362 1367.13 400.762C1371.93 400.462 1372.93 399.962 1376.33 396.362Z" fill="#8BCEBC"/>
<path d="M1423.43 406.263C1421 406.263 1420.63 404.763 1419.83 402.763C1418.43 399.663 1403.33 364.662 1400.63 358.362L1399.23 355.062H1403.53H1407.93L1410.93 362.362C1412.63 366.262 1416.33 375.762 1419.33 383.362C1422.33 390.862 1425.03 396.962 1425.43 396.862C1426.13 396.562 1433.03 380.362 1442.23 357.362C1443.03 355.462 1443.93 355.062 1447.23 355.062H1451.23L1449.93 358.362C1433.63 396.762 1430 406.263 1428.5 406.263C1427.5 406.163 1425 406.263 1423.43 406.263Z" fill="#8BCEBC"/>
<path d="M1517 406.562C1517 406.562 1516.94 389.562 1516.74 368.862L1516.54 331.062H1520.34H1524.24V368.463V406.562H1520.5C1518.5 406.562 1517 406.562 1517 406.562Z" fill="#8BCEBC"/>
<path d="M1568.23 406.062C1568.23 405.763 1568.13 394.162 1567.93 380.362L1567.63 355.062H1570.93C1574.23 355.062 1574.23 355.163 1574.23 359.763V364.362L1578.03 360.362C1581.53 356.462 1586.83 354.062 1591.73 354.062C1597.43 354.062 1603.63 357.362 1606.03 361.662C1606.83 363.162 1607.43 362.962 1610.63 359.862C1616.83 353.862 1627.13 352.562 1634.43 356.862C1636.03 357.762 1638.23 360.462 1639.33 362.862C1641.23 366.762 1641.43 369.062 1641.63 386.862L1641.73 406.562H1638.03H1634.23V388.763C1634.23 368.763 1633.43 365.363 1628.03 362.062C1624.03 359.662 1622.43 359.562 1617.33 361.662C1610.23 364.462 1608.33 371.162 1608.23 394.362V406.062H1605.23C1603.63 406.062 1602.23 405.962 1602.13 405.862C1602.13 405.662 1601.73 397.163 1601.33 386.763C1600.53 365.763 1599.93 363.862 1592.83 361.162C1585.24 361.162 1582.93 362.763 1578.13 367.362C1575.93 371.262 1575.73 372.763 1575.43 388.763L1575.03 405.862L1571.63 406.263C1569.73 406.463 1568.23 406.463 1568.23 406.062Z" fill="#8BCEBC"/>
<path d="M1667.43 404.964C1665.03 403.764 1662.03 401.264 1660.63 399.464C1652.73 389.164 1653.73 368.764 1662.43 360.264C1671.33 351.764 1685.63 351.964 1692.53 360.664C1694.93 363.864 1696.53 362.764 1695.73 358.464L1695.13 355.064H1699.23H1703.23V380.564V406.064H1699.23C1695.23 406.064 1695.23 406.064 1695.53 402.564C1696.03 398.364 1695.33 398.164 1692.13 401.664C1690.83 403.164 1688.33 404.964 1686.53 405.664C1681.63 407.764 1672.43 407.464 1667.43 404.964ZM1685.63 399.664C1687.43 398.864 1690.23 396.564 1691.83 394.464C1694.63 390.864 1694.73 390.264 1694.73 380.564C1694.73 370.864 1694.63 370.264 1691.83 366.664C1684.33 356.864 1670.63 358.364 1665.23 369.564C1662.03 376.164 1662.63 387.964 1666.33 393.664C1670.83 400.364 1678.33 402.764 1685.63 399.664Z" fill="#8BCEBC"/>
<path d="M1822.13 405.662C1816.13 403.562 1812.53 400.262 1809.63 394.462C1806.23 387.462 1805.73 376.162 1808.53 368.862C1813.53 356.062 1828.73 350.462 1841.23 356.862C1847.83 360.162 1851.13 365.662 1851.93 374.762L1852.43 380.562H1833.63H1814.73L1814.43 383.262C1813.93 387.362 1817.53 394.462 1821.73 397.562C1828.23 402.562 1839.53 402.062 1846.13 396.462L1849.03 394.062L1850.33 397.262C1851.53 400.062 1851.43 400.462 1849.33 402.162C1843.93 406.562 1829.63 408.362 1822.13 405.662ZM1845.63 375.162C1846.53 373.762 1842.73 365.862 1839.93 363.262C1835.43 359.062 1826.93 358.662 1822.13 362.362C1819.33 364.462 1815.23 371.262 1815.23 373.662V376.062H1830.13C1838.43 376.062 1845.33 375.662 1845.63 375.162Z" fill="#8BCEBC"/>
<path d="M1997.23 405.562C1992.63 403.463 1988.53 399.562 1985.93 394.562C1984.13 391.263 1983.73 388.862 1983.73 380.562C1983.73 372.163 1984.13 369.863 1985.93 366.463C1990.23 358.363 1997.53 354.062 2007.03 354.062C2012.5 354.562 2016 355.556 2020 359.062C2022.97 361.662 2025 362.562 2024.73 358.463C2024.13 355.063 2024.13 355.062 2027.93 355.062H2031.73L2031.63 380.763L2031.53 406.463L2027.93 406.562H2024.83V400.662L2025 396.062L2024 398.062C2024 398.062 2023 399.562 2022 400.562C2018.43 403.862 2022 400.662 2018.43 403.862C2015.53 406.062 2013.73 406.562 2007.83 406.862C2003.03 406.962 1999.63 406.562 1997.23 405.562ZM2016.93 398.263C2021.03 395.363 2023 389.562 2023.5 382.062C2024.2 372.062 2020.73 364.463 2013.53 361.463C2001.23 356.263 1989.3 366.962 1990.5 383.062C1991 390.162 1994.63 395.562 1999.13 398.662C2002.13 400.762 2003.63 401.162 2008.33 400.862C2011.93 400.562 2014.93 399.763 2016.93 398.263Z" fill="#8BCEBC"/>
<path d="M2109.53 404.563C2104.33 401.963 2100.43 398.463 2101.53 397.463C2101.83 397.063 2104.93 398.663 2108.33 400.963C2113.83 404.663 2115.13 405.063 2120.43 405.063C2126.93 405.063 2134.23 403.363 2134.23 401.763C2134.23 401.263 2133.33 401.163 2132.03 401.563C2127.13 403.263 2116.63 403.263 2113.13 401.563C2107.13 398.763 2105.63 397.563 2106.03 395.863C2106.53 393.463 2107.53 393.563 2109.83 396.163C2115.33 402.363 2129.63 402.563 2136.33 396.463C2138.43 394.563 2138.43 394.563 2140.13 397.863C2141.83 400.963 2140.43 402.463 2133.63 405.063C2125.63 407.963 2116.13 407.763 2109.53 404.563ZM2138.23 399.363C2138.23 398.163 2138.03 398.163 2136.73 399.463C2135.93 400.263 2135.23 401.163 2135.23 401.463C2135.23 401.763 2135.93 401.763 2136.73 401.463C2137.53 401.063 2138.23 400.163 2138.23 399.363Z" fill="#8BCEBC"/>
<path d="M911.235 385.062C911.235 373.463 911.435 363.163 911.235 362.562C911.035 361.763 909.135 361.062 906.035 361.062C901.835 361.062 902.001 361.062 901.5 360.062C901.5 359.062 901.5 356.862 901.5 356.062C902 355.062 903.535 355.062 906.735 355.062H911.235V349.862C911.748 341.562 912.5 339.562 916.335 334.463C918.5 332.562 919.935 331.562 926.535 331.562C933.635 331.562 934.035 331.562 934.035 334.362C934.035 337.162 933.9 337.562 930 337.562C925.4 337.562 920.835 339.162 919.835 341.562C919.535 342.462 919.235 345.862 919.235 349.162V355.062H925.735H932.235V358.062V361.062H925.735H919.235V383.562V406.062H915.535H911.735L911.235 385.062Z" fill="#8BCEBC"/>
<path d="M1078.23 380.562V355.062H1082.23H1086.23V380.562V406.062H1082.23H1078.23V380.562Z" fill="#8BCEBC"/>
<path d="M1719.64 380.563L1719.54 355.063H1722.94C1726.04 355.063 1726.24 355.264 1726.24 358.464C1726.24 362.964 1727.54 363.664 1729.74 360.464C1731.84 357.164 1739.34 353.864 1743.54 354.264C1746.44 354.564 1746.74 354.963 1747.04 358.063L1747.34 361.563L1742.94 361.264C1737.24 360.764 1733.14 362.864 1730.14 367.764C1727.94 371.264 1727.74 372.863 1727.34 388.863L1727.04 406.063H1723.34H1719.74L1719.64 380.563Z" fill="#8BCEBC"/>
<path d="M1757.23 368.562V331.062H1761.13H1765.03L1764.83 354.162C1764.73 367.262 1765.03 377.463 1765.53 377.763C1766.03 378.063 1771.73 373.062 1778.13 366.662L1789.73 355.062H1794.93H1800.13L1787.23 367.362L1774.43 379.562L1788.03 392.763L1801.73 406.062H1796.23H1790.63L1777.73 393.263L1764.73 380.463L1764.93 393.263L1765.13 406.062H1761.23H1757.23V368.562Z" fill="#8BCEBC"/>
<path d="M2154.23 400.964C2154.23 396.664 2154.53 395.964 2155.83 396.464C2156.73 396.764 2158.93 397.064 2160.83 397.064C2164.23 397.064 2164.23 397.064 2164.23 401.564V406.064H2159.23H2154.23V400.964ZM2160.63 402.464C2162.23 400.964 2161.93 398.564 2160.23 399.564C2159.83 399.864 2159.23 399.664 2159.03 399.064C2158.33 397.064 2156.03 399.864 2156.73 401.964C2157.53 404.464 2158.53 404.664 2160.63 402.464Z" fill="#8BCEBC"/>
<path d="M2095.73 388.062C2097.23 393.562 2097.23 393.562 2099.73 397.062C2103.23 400.062 2107.53 396.662 2108.73 395.062C2105.03 388.562 2104.93 388.362 2104.63 385.862C2103.03 378.062 2107.03 365.562 2112.73 362.062C2117.13 359.363 2124.43 359.362 2128.33 362.162C2131.13 364.162 2134.13 368.962 2135.63 373.862L2135.63 373.863C2136.33 376.062 2136.33 376.062 2125.33 376.062C2114.93 376.062 2114.23 376.163 2114.23 378.062C2114.23 379.962 2114.93 380.062 2128.33 380.062H2142.53L2141.83 374.463C2140.33 361.463 2132.53 353.062 2120.23 353.062C2109.03 353.062 2099.53 360.363 2096.23 372.062L2096.23 372.07C2095.23 376.063 2095.23 376.066 2095.23 381.062C2095.23 384.562 2095.23 385.062 2095.73 388.062Z" fill="#8BCEBC"/>
<path d="M1901 393.662C1901 374.162 1900.7 357.562 1900.4 356.662C1899.9 355.362 1900.6 355.062 1904.4 355.062C1909 355.062 1909 355.062 1909 358.562C1909 362.462 1909.9 362.962 1911.8 360.062C1913.9 356.662 1920.4 354.062 1926.7 354.062C1938 354.062 1945.6 360.362 1948.7 372.362C1950 377.062 1950 377.062 1950 380.062C1950 381.562 1950 380.562 1950 382.062C1950.5 384.062 1949.4 390.563 1946.2 396.463C1939.8 408.263 1923.3 411.562 1913.6 403.062C1911.8 401.362 1909.9 400.062 1909.6 400.062C1909.2 400.062 1909 402.162 1909.1 404.862C1909.2 407.462 1909.2 413.962 1909.2 419.362L1909 429.062H1905H1901V393.662ZM1933.8 398.362C1938.5 394.862 1940.5 389.463 1940.5 380.562C1940.4 367.462 1935.6 361.062 1926 361.062C1917.4 361.062 1911.4 366.762 1909.9 376.362C1908.2 386.762 1911.6 395.062 1919 398.862C1924.2 401.562 1929.8 401.362 1933.8 398.362Z" fill="#8BCEBC"/>
<path d="M739.503 407.662C729.103 404.262 723.103 395.362 723.003 382.862C722.803 365.262 731.603 355.062 747.103 355.062C758.103 355.062 764.403 358.562 769.103 367.362C771.503 371.962 771.803 373.663 771.803 382.062C771.803 389.963 771.403 392.262 769.603 395.662C767.203 400.062 761.503 405.662 757.803 407.062C753.303 408.763 743.903 409.062 739.503 407.662ZM756.503 398.862C760.903 395.762 763.503 389.263 763.403 381.562C763.403 374.062 761.703 369.663 757.503 365.763C753.103 361.563 747.303 360.563 741.803 362.963C736.703 365.163 733.732 368.87 732 376.062C731.596 378.062 731.596 379.062 731.596 379.062V380.062C731.549 380.771 731.549 380.75 731.549 382.062C731.549 383.864 731.549 383.854 731.803 386.362C733.003 393.462 736.703 398.663 742.303 400.963C745.903 402.463 752.903 401.462 756.503 398.862Z" fill="#8BCEBC"/>
<path d="M981.307 406.767C971.007 403.467 964.207 393.567 964.007 381.767C963.707 365.167 973.207 354.367 988.407 354.067C1001.61 353.867 1008.71 360.867 1010.91 376.567L1011.51 381.267H991.807H972.107L972.807 385.567C975.107 399.967 990.107 405.367 1003.51 396.667L1007.31 394.267L1008.91 397.467C1010.41 400.467 1010.41 400.667 1008.71 402.067C1002.11 407.167 989.207 409.367 981.307 406.767ZM1003.31 374.067C1003.21 370.867 999.107 364.167 996.107 362.267C992.007 359.667 984.507 359.967 980.507 362.967C977.107 365.467 973.307 370.967 973.307 373.367C973.307 375.167 974.407 375.267 988.307 375.267C999.607 375.267 1003.31 374.967 1003.31 374.067Z" fill="#8BCEBC"/>
<path d="M1120.6 406.662C1118.5 405.862 1115.5 403.963 1114 402.562L1111.1 399.862L1110.8 403.162C1110.5 406.362 1110.3 406.562 1106.3 406.862L1102 407.162V369.162V331.062H1106.5H1111V346.062V361.162L1114.9 358.062C1119.7 354.163 1124.7 352.962 1131.6 354.062C1138.3 355.163 1139.8 355.963 1144.3 360.963C1152.4 369.963 1153.3 388.763 1146.1 398.963C1141.1 405.963 1128.8 409.662 1120.6 406.662ZM1134.8 398.362C1142.9 393.262 1144.9 376.563 1138.5 366.963C1135.1 361.763 1128.5 359.263 1122.8 360.963C1114.9 363.363 1110.7 370.662 1110.8 381.862C1110.9 396.262 1124 405.262 1134.8 398.362Z" fill="#8BCEBC"/>
<path d="M1283.7 406.662C1275.1 403.562 1274 400.462 1274 378.362V362.162L1269.3 361.862C1264.7 361.562 1264.5 361.462 1264.2 358.362C1263.9 355.262 1263.9 355.162 1268.7 354.862L1273.5 354.562L1274 347.662L1274.5 340.762L1278.3 339.462C1283 337.862 1283.4 338.562 1282.8 346.762C1282.5 349.962 1282.5 353.162 1282.7 353.862C1283 354.662 1285.4 355.062 1290.1 355.062H1297V358.562V362.062H1289.7H1282.4V378.462C1282.5 394.462 1282.6 394.962 1284.9 397.462C1286.9 399.562 1288.3 400.062 1292.2 400.062C1297 400.062 1297 400.062 1297 403.462C1297 406.562 1296.7 406.862 1293.3 407.462C1288.4 408.262 1288.2 408.162 1283.7 406.662Z" fill="#8BCEBC"/>
<path d="M1875.3 406.162C1868.1 402.862 1867.6 401.162 1867 380.062L1866.5 361.562L1862.3 361.662C1858.1 361.762 1858 361.662 1858 358.362C1858 355.062 1858.1 355.062 1862.5 355.062H1867V348.162C1867 341.562 1867.05 340.099 1870 339.563C1875.5 338.562 1875.5 337.962 1876 346.562L1876.5 354.562L1883.3 354.862L1890 355.162V358.662C1890 362.162 1889.9 362.262 1886.3 361.962C1884.2 361.862 1881 361.862 1879.3 361.962L1876 362.062V378.562C1876 394.862 1876 395.162 1878.5 397.562C1880.9 400.062 1882.2 400.462 1887.3 400.062C1889.7 399.962 1890 400.262 1890 402.962C1890 405.462 1889.4 406.362 1887.4 407.062C1883.6 408.562 1880 408.262 1875.3 406.162Z" fill="#8BCEBC"/>
<path d="M2061 406.562C2050.5 403.263 2044.6 394.562 2044.6 382.062C2044.5 372.562 2046 367.562 2050.7 362.162C2055.7 356.262 2060.8 354.062 2069.6 354.062C2075.3 354.062 2077.6 354.562 2082 356.862C2085 358.362 2087.6 360.062 2087.7 360.662C2087.9 361.262 2087.3 362.763 2086.3 363.963L2084.5 366.162L2079.9 363.562C2074 360.363 2066.6 359.963 2061.8 362.763C2057 365.563 2053 373.863 2053 380.963C2053.1 397.863 2067.5 405.862 2081.2 396.562C2083.2 395.162 2085.1 394.062 2085.3 394.062C2085.6 394.062 2086.3 395.462 2087.1 397.162C2088.3 400.162 2088.2 400.463 2085.4 402.763C2081.9 405.563 2074 408.063 2069.1 407.963C2067.1 407.963 2063.5 407.263 2061 406.562Z" fill="#8BCEBC"/>
<path d="M2114.7 406.963C2109.5 405.763 2106 403.763 2102.6 400.163L2099.6 397.063H2102.3C2104 397.063 2105.3 396.263 2106.1 394.863C2107.1 393.063 2107.4 392.963 2108.1 394.363C2108.6 395.163 2110.6 396.863 2112.6 398.163C2118.8 401.963 2128.7 400.963 2136.1 395.963C2138.7 394.163 2138.7 394.163 2139.9 396.663C2140.5 398.063 2141 399.763 2141 400.363C2141 402.163 2136.1 404.763 2129.4 406.563C2123 408.263 2120.3 408.263 2114.7 406.963Z" fill="#8BCEBC"/>
<path d="M690.401 393.188V378.388L677.801 358.989C670.901 348.289 664.601 338.589 663.901 337.489C662.101 334.689 662.801 334.089 667.801 334.089H671.901L683.301 352.089L694.801 370.188L705.001 354.388C719.201 332.488 717.801 334.089 722.901 334.089C725.401 334.089 727.401 334.388 727.401 334.688C727.401 335.088 721.101 345.089 713.401 357.089L699.401 378.789V393.388V408.089H694.901H690.401V393.188Z" fill="#8BCEBC"/>
<path d="M844 382.662C844 369.262 843.7 357.562 843.4 356.662C842.9 355.362 843.6 355.062 847.4 355.062H852V359.162V363.263L854.7 359.963C858.1 355.963 862.6 354.062 868.5 354.062H873V358.062V361.963L868.3 361.463C864.6 361.063 862.8 361.363 860.3 362.963C854.4 366.663 853.6 369.663 853 389.062L852.5 406.562L848.3 406.862L844 407.162V382.662Z" fill="#8BCEBC"/>
<path d="M1016 406.362C1016 405.862 1020.5 399.963 1026 393.062C1031.4 386.163 1035.9 380.163 1035.9 379.562C1035.9 379.062 1031.7 373.362 1026.5 367.062L1017 355.562L1021.6 355.263C1024.2 355.063 1026.8 355.162 1027.5 355.362C1028.1 355.662 1031.6 359.763 1035.1 364.463C1038.6 369.163 1041.7 373.062 1042 373.062C1042.3 372.962 1045.6 368.962 1049.4 364.062L1056.3 355.062H1061.8C1067 355.062 1067.2 355.162 1065.8 356.862C1063.1 359.862 1049.4 377.562 1048.6 378.862C1048.1 379.762 1050.7 384.063 1056.4 391.463C1061.1 397.663 1065.6 403.362 1066.5 404.062C1069.1 406.263 1068.2 407.062 1063.1 407.062H1058.2L1050.4 397.062C1046.1 391.562 1042.2 387.062 1041.8 387.062C1041.4 387.062 1037.7 391.562 1033.5 397.062L1025.8 407.062H1020.9C1018.2 407.062 1016 406.762 1016 406.362Z" fill="#8BCEBC"/>
<path d="M1164 406.862C1163.9 406.662 1163.8 389.563 1163.7 368.763L1163.5 331.062H1167.8H1172V369.062V407.062H1168C1165.8 407.062 1164 406.962 1164 406.862Z" fill="#8BCEBC"/>
<path d="M1307.7 406.361C1307.3 406.061 1307 395.861 1307 383.861C1307 362.761 1307 364.561 1307 362.061C1307 358.061 1307 358.961 1307 356.061C1307 353.261 1311 353.606 1313.5 354.061C1315.5 354.425 1314.7 356.761 1315 358.961L1315.5 362.261L1318 359.561C1320.6 356.761 1323.5 354.061 1332.5 354.061C1336 354.061 1336 354.061 1336 357.061C1336 357.061 1336.11 360.946 1334.5 361.061C1332.89 361.176 1326.4 361.861 1326.4 361.861C1323.5 362.661 1321.2 364.261 1319.3 366.761C1316.5 370.361 1316.5 370.461 1316.2 388.761L1315.9 407.061H1312.1C1310 407.061 1308 406.761 1307.7 406.361Z" fill="#8BCEBC"/>
<path d="M1961 368.362L1961 407.062H1966.2H1970V382.463V356.562V339.662V331.062H1965.5H1961V368.362Z" fill="#8BCEBC"/>
<path d="M2154 403.862C2154 402.062 2153.7 399.562 2153.4 398.362C2152.8 396.162 2153 396.062 2158.4 396.062H2164V401.562V407.062H2159C2154 407.062 2154 407.062 2154 403.862Z" fill="#8BCEBC"/>
<path d="M783.4 388.362C783.4 396.962 787.8 404.062 794.9 406.662C797.5 407.562 800.8 407.862 804.3 407.562C810.3 406.963 812.9 406.263 816.9 402.562L819.4 400.562V403.362C819.4 406.962 819.5 407.062 823.4 407.062H827.4L827.3 397.862V388.562L825.4 392.862C823.9 396.162 822.9 397.062 821 397.062C819.3 397.062 818.4 396.362 818 394.662C818 390.562 818.5 391.062 813 396.562C809 399.562 809 399.562 804.2 400.062C798.5 399.062 798.5 399.062 795.8 396.963L793 394.062L792.6 374.463L792.3 355.062H787.8H783.4V369.562V388.362Z" fill="#8BCEBC"/>
<path d="M818.001 370.963C818.001 379.863 818.001 387.062 817.501 393.062C816.501 398.562 827.001 410.562 827.001 406.062C827.001 401.062 827.501 380.562 827.501 376.562V364.562V355.062H822.501H818.001V370.963Z" fill="#8BCEBC"/>
<path d="M2101.6 391.462C2101.3 390.562 2099.5 389.362 2099.5 387.062C2099.5 383.663 2100.6 381.362 2098.8 380.562C2096.8 379.662 2096.5 378.862 2096.6 374.962C2097.2 357.462 2118.1 347.662 2133.3 357.662C2138 360.762 2141.7 368.262 2142.2 375.562L2142.5 380.562L2128.3 380.862L2114 381.162V378.062V375.062H2124.5C2136.2 375.062 2136.3 374.962 2132.7 368.562C2129.8 363.462 2124.8 360.062 2120 360.062C2113.9 360.062 2107 365.962 2105.4 372.362C2104.9 374.462 2105.48 372.062 2104.5 376.562C2103.78 380.062 2104.5 377.062 2104 379.562C2104 382.062 2104 382.763 2104 385.062C2104 392.362 2103.1 395.462 2101.6 391.462Z" fill="#8BCEBC"/>
<path d="M1077 338.062V333.062H1082H1087V338.062V343.062H1082H1077V338.062Z" fill="#8BCEBC"/>
<path d="M793.2 255.555C794.4 256.755 796.6 258.155 798 258.755C801.9 260.255 809.8 260.055 813.7 258.255C815.6 257.355 818.2 254.955 819.6 252.955C821.9 249.655 822 248.555 822 235.855L822 216.855L822 186.555C822 164.055 822.3 158.355 823.6 154.455C825.5 148.955 833.7 139.555 838.9 136.955C842.8 134.955 854.3 131.855 857.7 131.855C860.5 131.355 865.4 131.955 866.9 132.255C868.3 132.555 873.2 133.555 877.6 134.455C885.4 136.055 885.9 136.055 889.6 134.255C894.8 131.655 898 126.755 898 121.155C898 109.455 888.4 103.055 869.5 102.155C852.7 101.355 837.9 105.755 827.8 114.755C825.3 116.955 823 118.855 822.8 118.855C822.5 118.855 821.8 117.055 821.1 114.955C818.6 106.455 809.7 101.455 801.1 103.755C791.7 106.255 788 111.455 788 122.255V128.855V139.355V149.855V198.855C788 251.555 787.9 250.655 793.2 255.555Z" fill="#FBC84D"/>
<path d="M1130.83 259.361C1125.53 256.661 1123.93 253.961 1106.43 216.561C1100.13 203.061 1091.63 185.061 1087.53 176.561C1083.43 168.061 1076.43 153.261 1071.83 143.661C1062.93 125.061 1061.53 119.861 1064.23 114.861C1067.83 107.761 1076.53 103.561 1083.73 105.561C1091.33 107.561 1093.73 110.861 1102.73 131.461C1115.53 160.461 1138.23 209.461 1138.93 209.561C1139.23 209.561 1140.33 207.461 1141.53 204.861C1142.73 202.161 1148.93 188.561 1155.33 174.561C1161.83 160.561 1168.63 145.461 1170.53 141.061C1177.83 124.161 1184.83 110.761 1187.43 108.661C1196.23 101.761 1209.13 105.261 1213.33 115.761C1214.33 118.361 1214.73 121.161 1214.33 123.161C1213.53 127.661 1202.13 151.561 1200.83 151.561C1200.23 151.561 1199.83 152.161 1200.03 152.861C1200.23 153.561 1198.43 158.161 1196.13 163.161C1193.83 168.061 1189.03 178.361 1185.53 186.061C1164.13 232.261 1154.53 252.261 1152.23 255.261C1147.33 261.761 1138.73 263.361 1130.83 259.361Z" fill="#FBC84D"/>
<path d="M1392.27 241.596C1397.47 251.796 1405.37 258.596 1416.77 262.496C1425.97 265.796 1437.67 265.296 1444.47 261.296C1454.47 255.396 1455.77 240.996 1446.97 233.496C1444.07 231.096 1442.87 230.796 1436.77 230.796C1432.57 230.796 1428.67 230.196 1426.97 229.296C1423.07 227.296 1420.07 223.597 1419.47 214.797C1419.17 210.697 1419.4 204.562 1419 204.562V129.562V76.5625V65.5625C1419 55.2625 1418.17 50.6964 1413.37 46.8964C1409.97 44.2964 1403.27 43.2965 1398.17 44.6965C1393.27 45.9965 1388.47 51.0965 1386.87 56.4965C1386.07 59.1965 1385.87 84.3964 1386.07 142.796C1386.47 232.496 1386.37 230.096 1392.27 241.596Z" fill="#FBC84D"/>
<path d="M1285.02 261.367C1253.32 256.467 1229.43 235.067 1221.32 204.367C1218.22 192.767 1218.22 172.567 1221.32 161.167C1230.93 125.667 1258.32 104.367 1295.02 104.067C1309.22 103.967 1317.52 105.667 1327.92 110.967C1343.32 118.767 1353.82 129.567 1360.02 144.067C1365.02 155.767 1366.72 164.667 1366.32 177.167L1366.02 187.567L1362.42 190.867C1359.32 193.667 1357.72 194.267 1352.32 194.867C1337.52 194.857 1336.43 195.367 1337.53 192.367C1338.33 190.467 1343.82 190.367 1345.02 191.367C1346.32 192.467 1338.92 190.567 1338.92 183.867C1338.92 179.567 1346.32 177.267 1346.12 177.467C1343.72 179.867 1343.53 190.474 1343.53 191.074C1343.53 191.574 1338.22 189.367 1338.92 189.367C1340.12 189.367 1344.83 190.467 1344.03 192.867C1342.53 194.867 1344.53 194.867 1335.53 194.867C1333.93 194.867 1333.03 194.868 1332.03 194.867C1330.53 194.867 1331.53 194.868 1329.53 194.867C1328.03 194.868 1313.22 195.367 1290.02 195.367H1252.33L1252.92 198.167C1254.22 203.367 1259.32 212.867 1263.12 217.267C1272.42 227.967 1286.02 233.067 1302.42 232.067C1312.42 231.467 1318.82 229.267 1329.52 222.867C1334.62 219.867 1338.12 218.367 1340.52 218.367C1345.02 218.367 1352.32 222.067 1354.92 225.667C1357.52 229.167 1357.62 236.767 1355.12 240.467C1353.12 243.567 1344.22 249.967 1336.62 253.867C1324.32 260.067 1299.72 263.567 1285.02 261.367ZM1333.92 164.667C1332.72 158.967 1326.52 147.667 1322.22 143.367C1316.62 137.667 1310.72 134.767 1301.62 133.167C1295.42 132.067 1293.22 132.167 1286.42 133.567C1275.92 135.767 1270.32 138.767 1264.22 145.367C1259.72 150.267 1254.82 158.867 1253.02 165.167L1252.42 167.367H1293.52H1334.52L1333.92 164.667Z" fill="#FBC84D"/>
<path d="M169.4 466.203C176.3 475.203 189.5 483.403 199.7 484.903C206.2 485.803 215.4 485.203 222 483.303C227.4 481.803 244 471.803 247.5 468.003C249.298 466.006 249.2 466.003 244.915 465.904L244.9 465.903C234.9 465.703 230 463.903 223.5 457.903C214.5 449.603 213.2 444.103 212.6 412.503C212.1 385.903 212.7 379.303 217.6 361.503C227.4 326.003 240.5 306.403 270 282.703C276.9 277.103 285.9 269.703 290 266.003C294.1 262.403 303.7 254.303 311.4 248.003C319 241.703 329.8 232.703 335.4 228.003C340.9 223.303 353.8 212.603 364 204.203C374.2 195.703 386.3 185.603 391 181.603C402.6 171.703 426 152.403 432.4 147.503C435.3 145.303 442.8 139.003 449.1 133.503C455.4 128.003 463.2 121.503 466.5 119.003C471.5 115.303 485.3 103.903 487 102.003C489.2 99.5034 497.2 93.9034 497.7 94.4034C498.5 95.1034 487.891 145.003 480.191 178.503C479.591 181.503 474.6 205.403 474.3 207.703L473.8 211.803L479.5 213.003C490 215.203 504.4 222.103 513.8 229.503C517.8 232.603 521.3 235.003 521.6 234.703C522.5 233.803 539.1 160.403 547 122.003C552 98.0034 555.5 81.7034 558.9 67.5034C568.2 27.6034 568.9 21.7034 565.2 14.5034C558.4 1.30339 545 -1.9375 528.6 1.00339C521.7 2.50339 522.4 2.70339 521.7 2.50339C521 2.20339 517.1 4.80338 512.9 8.30338C508.7 11.7034 501.5 17.6034 496.9 21.3034C490.5 26.5034 484 32.0627 479 36.9034C479 35.9034 477.7 40.0627 447 65.5627C438.5 72.5627 425.3 84.9034 424.1 85.7034C422.2 87.2034 418.8 90.2034 416.6 92.3034C414.3 94.4034 405.8 101.503 397.5 108.203C389.3 114.903 376.3 125.703 368.8 132.303C361.2 138.903 353.7 145.463 352 146.563C351 146.563 325.9 168.003 302.4 187.603C251.3 230.003 240.8 238.703 231.4 246.303C220.1 255.303 199.6 277.103 193.6 286.203C169 324.003 159 359.603 159 409.003C159.1 440.503 162 456.403 169.4 466.203Z" fill="#8BCEBC"/>
<path d="M144.303 274.145C140.003 273.145 88.3037 245.945 88.3037 244.745C88.3037 244.345 101.203 242.645 101.703 241.245C102.603 238.945 110.604 242.245 111.804 243.245C113.104 244.345 109.803 248.445 109.803 241.745C109.803 237.445 91.8037 235.645 109.403 234.345C107.003 236.745 117.804 250.145 117.804 250.745C117.804 251.245 101.403 246.245 102.203 246.245C103.703 246.245 103.303 249.845 101.703 250.745C100.403 251.645 94.0033 248.045 93.5033 246.145C93.2033 244.945 107.704 253.345 106.304 253.745C104.204 254.245 73.7033 237.945 53.3033 226.345C47.3033 222.845 36.4033 216.945 29.1033 213.045C18.5033 207.445 14.8033 204.945 10.4033 200.245C-7.19671 181.145 -1.69673 149.145 21.1033 138.745C24.0033 137.445 33.1033 134.445 41.3033 132.245C49.6033 129.945 61.3033 126.645 67.3033 124.745C82.4033 120.145 109.303 112.945 121.003 110.345C126.403 109.145 142.603 104.845 157.003 100.645C171.503 96.4453 193.403 90.3452 205.803 87.1452C255.303 74.1452 262.703 72.1452 272.303 69.2452C277.803 67.5452 287.903 64.8452 294.803 63.1452C301.703 61.5452 310.903 59.0452 315.303 57.8452C319.703 56.5452 327.803 54.2452 333.303 52.8452C344.203 50.0452 367.803 43.5452 399.303 34.9452C410.303 31.9452 426.503 27.5452 435.303 25.2452C444.103 22.8452 462.803 17.8452 476.803 13.9452C514.303 3.64523 515.103 3.44522 519.303 3.14522C524.203 2.64522 524.903 4.44522 521.103 7.64522C512.403 15.1452 497.503 27.3452 492.003 31.5452L485.803 36.3452L487.603 31.5452C488.603 28.9452 489.803 25.9452 490.203 24.8452C490.703 23.3452 491.103 23.2452 492.303 24.2452C493.603 25.3452 493.803 24.4452 493.803 17.7452C493.803 13.4452 494.004 26.0451 493.804 26.2451C491.404 28.6451 485.503 29.1451 485.503 29.7451C485.503 30.2451 485.403 22.2452 486.203 22.2452C487.403 22.2452 487.203 23.3452 485.503 28.2452C484.303 31.5452 483.003 34.2452 482.703 34.2452C482.403 34.2452 481.403 32.4452 480.503 30.2452C479.403 27.4452 482.804 25.8451 481.804 26.2451C480.604 26.6451 488.004 24.6451 489.804 29.2451C490.904 32.2451 486.004 35.1451 486.804 35.2451C487.604 35.4451 474.203 46.1452 463.203 55.1452C452.303 64.2452 440.503 73.9452 437.103 76.8452C430.403 82.4452 424.903 84.5452 407.403 88.3452C396.503 90.7452 387.103 93.2452 376.303 96.6452C361.703 101.145 343.603 106.045 322.803 111.145C311.503 113.845 293.803 118.645 283.303 121.745C272.903 124.845 257.403 129.145 249.103 131.245C219.303 138.945 199.003 144.445 177.303 150.645C165.203 154.145 146.503 159.145 135.803 161.745C108.303 168.445 81.8033 176.445 81.8033 178.145C81.8033 179.445 97.3033 188.945 111.303 196.245C140.103 211.245 167.403 226.545 170.603 229.645C172.503 231.345 174.603 233.945 175.403 235.345C182.303 248.545 175.703 267.145 162.003 272.745C157.303 274.745 149.203 275.345 144.303 274.145ZM219.804 120.245C219.804 119.445 219.803 119.445 219.403 119.145C218.103 118.345 219.604 117.045 220.304 118.245C221.304 119.845 219.804 121.945 219.804 120.245Z" fill="#FBC84D"/>
</svg>
